<svg width="130" height="130" viewBox="0 0 130 130" fill="none" xmlns="http://www.w3.org/2000/svg">
<path d="M65.0007 0.833374C100.44 0.833374 129.167 29.5608 129.167 65C129.167 100.439 100.44 129.167 65.0007 129.167C54.62 129.18 44.3922 126.665 35.2017 121.839L7.67421 129.006C6.75442 129.246 5.78799 129.241 4.87071 128.992C3.95342 128.743 3.11714 128.258 2.44472 127.587C1.77231 126.915 1.28712 126.079 1.03724 125.162C0.787355 124.245 0.781457 123.279 1.02013 122.359L8.18113 94.8375C3.34168 85.6373 0.819742 75.3954 0.834045 65C0.834045 29.5608 29.5615 0.833374 65.0007 0.833374ZM73.0344 71.4167H44.1465L43.492 71.4616C42.3402 71.6201 41.2846 72.1903 40.5205 73.0667C39.7565 73.9431 39.3355 75.0665 39.3355 76.2292C39.3355 77.3919 39.7565 78.5153 40.5205 79.3917C41.2846 80.2682 42.3402 80.8383 43.492 80.9968L44.1465 81.0417H73.0344L73.6824 80.9968C74.8343 80.8383 75.8899 80.2682 76.6539 79.3917C77.418 78.5153 77.839 77.3919 77.839 76.2292C77.839 75.0665 77.418 73.9431 76.6539 73.0667C75.8899 72.1903 74.8343 71.6201 73.6824 71.4616L73.0344 71.4167ZM85.8549 48.9584H44.1465L43.492 49.0033C42.3402 49.1618 41.2846 49.7319 40.5205 50.6083C39.7565 51.4847 39.3355 52.6082 39.3355 53.7709C39.3355 54.9336 39.7565 56.057 40.5205 56.9334C41.2846 57.8098 42.3402 58.38 43.492 58.5385L44.1465 58.5834H85.8549L86.5094 58.5385C87.6612 58.38 88.7168 57.8098 89.4809 56.9334C90.2449 56.057 90.6659 54.9336 90.6659 53.7709C90.6659 52.6082 90.2449 51.4847 89.4809 50.6083C88.7168 49.7319 87.6612 49.1618 86.5094 49.0033L85.8549 48.9584Z" fill="white"/>
</svg>
