<svg width="130" height="130" viewBox="0 0 130 130" fill="none" xmlns="http://www.w3.org/2000/svg"><path d="M65 .833c35.44 0 64.167 28.728 64.167 64.167s-28.727 64.167-64.166 64.167a63.924 63.924 0 01-29.8-7.328l-27.527 7.167a5.45 5.45 0 01-5.23-1.419 5.457 5.457 0 01-1.424-5.228l7.161-27.521A63.904 63.904 0 01.834 65C.834 29.56 29.561.833 65.001.833zm8.034 70.584H44.146l-.654.045a4.813 4.813 0 000 9.535l.655.045h28.887l.648-.045a4.812 4.812 0 000-9.535l-.648-.045zm12.82-22.459H44.148l-.655.045a4.813 4.813 0 000 9.535l.655.045h41.708l.654-.044a4.813 4.813 0 000-9.536l-.654-.045z" fill="#fff"/></svg>