<svg width="36" height="35" viewBox="0 0 36 35" fill="none" xmlns="http://www.w3.org/2000/svg">
<path d="M23.6831 24.2551L26.6231 21.3151C27.0191 20.924 27.5201 20.6563 28.0653 20.5445C28.6105 20.4326 29.1764 20.4815 29.6944 20.6851L33.2775 22.1157C33.801 22.3281 34.2498 22.6908 34.5674 23.1579C34.8851 23.6251 35.0574 24.1758 35.0625 24.7407V31.3032C35.0595 31.6875 34.9787 32.0671 34.825 32.4194C34.6714 32.7716 34.4481 33.0891 34.1685 33.3527C33.8889 33.6164 33.5588 33.8207 33.1982 33.9534C32.8376 34.0862 32.4538 34.1445 32.07 34.1251C6.9619 32.5632 1.89565 11.3007 0.937523 3.16318C0.893046 2.76357 0.933684 2.35907 1.05676 1.9763C1.17984 1.59352 1.38257 1.24114 1.65161 0.942345C1.92065 0.643546 2.24991 0.405097 2.61773 0.242687C2.98555 0.0802773 3.38358 -0.0024139 3.78565 5.36406e-05H10.125C10.6907 0.00172811 11.243 0.172605 11.7108 0.490705C12.1786 0.808805 12.5405 1.25958 12.75 1.78505L14.1806 5.36818C14.391 5.88408 14.4446 6.45052 14.3349 6.99674C14.2252 7.54297 13.957 8.04475 13.5638 8.43943L10.6238 11.3794C10.6238 11.3794 12.3169 22.8376 23.6831 24.2551Z" fill="#CC242A"/>
</svg>
